<svg version="1.2" xmlns="http://www.w3.org/2000/svg" viewBox="0 0 1415 209" width="1415" height="209"><style>.a{fill:#020203}</style><path class="a" d="m593.8 52.9c-21.4 0-44.5 16.6-52.6 37.2-5.4-24.5-23.4-37.2-47.1-37.2-21.5 0-43.5 14.1-51.6 34.6v-32.3h-27.8v149.8h28.4c0 0 0-80.6 0-98.8 0-20.3 22-31.3 37.6-31.3 21.1 0 33.8 10.3 33.8 38.6v91.5h28.5v-98.3q0-0.6 0-1.1c0.4-20 22.1-30.7 37.5-30.7 21.2 0 33.9 10.4 33.9 38.7v91.4h28.5v-98.3c-0.1-35.3-20.3-53.8-49.1-53.8z"/><path class="a" d="m1183 12.3h-28.2v44h-32.8v24.1h32.8v79.6c0 10.8 1.9 19.8 5.8 26.9 4 7 9.4 12.3 16.4 15.6 7 3.4 15.1 5 24.3 5q6.7 0 12.7-1.1c4.1-0.8 8.2-2.1 12.5-4.2v-24.9c-2.8 1.3-5.8 2.3-8.8 3-3.1 0.6-6.3 1-9.7 1-7.4 0-13.5-2.1-18.1-6.2-4.5-4.1-6.8-11.3-6.8-21.6v-73.1h44.8v-24.1h-44.8v-44z"/><path class="a" d="m333.2 105.7v-49.5h-27.2v148.4h28.4v-71.1c0-44.2 23.9-55.1 61.6-55.1v-24.6c-37.5 0-56 23.8-62.8 51.9z"/><path class="a" d="m887 53.9c-21.3 0-43.1 14-51.1 34.4v-32h-27.7v148.6h28.2c0 0 0-79.9 0-98 0-20.2 21.8-31.1 37.3-31.1 20.9 0 43.3 10.2 43.3 38.3v90.7h28.3v-97.6c0.1-35-29.9-53.3-58.3-53.3z"/><path class="a" d="m1076.8 56.3c0 0 0 83.8 0 104.3 0 20.1-22.4 26-37.9 26-20.9 0-43.4-10.2-43.4-38.3v-92h-28.2v99.3c0 35.2 29.9 52.8 58.3 52.8 21.3 0 43.1-8.9 51.2-29.4v25.7h28.3v-148.4z"/><path fill-rule="evenodd" class="a" d="m787 111.2v93.5h-27.6v-80.3c-7 3.6-15.2 6.9-23.5 10 7.9 11.9 13.5 24.6 13.5 38.1 0 25.5-23 35.9-45.9 35.9-23.3 0-46.4-13-46.4-39.2 0-30.7 33.7-39.5 62.4-48.9-11.8-13.2-50.8-49.2-50.8-49.2 24.2-14.9 45.8-17.4 61-17.4 37.3 0 57.2 20.8 57.3 57.5zm-55.1 24.8c-23.5 8.9-47.3 16-47.3 33.7 0 12.2 13 18.5 26.9 18.5 15.7 0 32.3-5.7 32.3-23.1 0-9.2-4.7-19.1-11.9-29.1zm27.3-43.1c0-12.3-13-16.8-28.7-16.8-13.6 0-28.8 3.1-40.6 8.9 8.3 9.1 21.6 20.4 33.4 33.9 19.7-6.9 36-13.2 35.9-26z"/><path fill-rule="evenodd" class="a" d="m1368.2 160.4c0 31.7-24.4 47.4-65.8 47.4-38.2 0-59.7-21-59.7-47 0-13.2 5.9-25.8 16.4-34.6-7.4-6-12.5-16.8-12.5-26.9 0-23.5 15.2-45.5 60.8-45.5 36.4 0 57.6 24.6 58.6 51.4-31.3 0-57.9 2.9-75.8 8.6 23 9.6 78 0.2 78 46.6zm-94.3-65.2c0 7.9 3.1 12.9 11.5 16.9 14.4-4.9 31.8-8.1 53.7-9.4-1.1-12.2-8.9-27.9-35.2-27.9-20.9 0-29.9 8.8-30 20.4zm65.7 69.6c0-12.2-7.4-18-38.8-23.1-14.6-2.4-29.2-5.5-39-13.2-7.6 7.3-12 17-12 26.8 0 23.1 22.2 35.1 45.2 35.1 35.2 0 44.6-13.6 44.6-25.6z"/><path fill-rule="evenodd" class="a" d="m1414.7 35.7c0 3.3-0.5 6.3-1.7 9.1-1.2 2.8-2.9 5.4-5 7.5-2.1 2.1-4.7 3.8-7.6 5-2.9 1.2-6.1 1.8-9.5 1.8-3.4 0-6.6-0.6-9.4-1.8-2.9-1.2-5.5-2.9-7.6-5-2.2-2.1-3.8-4.7-5.1-7.5-1.1-2.9-1.7-5.8-1.7-9.1 0-3.2 0.5-6.2 1.7-9.1 1.3-2.8 2.9-5.3 5.1-7.4 2.2-2.2 4.7-3.8 7.6-5.1 2.8-1.2 6-1.8 9.4-1.8 3.4 0 6.6 0.6 9.5 1.8 2.9 1.3 5.5 2.9 7.6 5.1 2.1 2.1 3.8 4.5 5 7.4 1.2 2.9 1.8 5.9 1.7 9.1zm-4.2 0c0-2.7-0.5-5.3-1.5-7.7-0.9-2.3-2.2-4.4-4-6.2-1.8-1.7-3.9-3.1-6.2-4.2-2.4-1-5-1.5-7.9-1.5-2.9 0-5.6 0.5-7.9 1.5-2.4 1-4.4 2.5-6.2 4.2-1.7 1.8-3.1 3.9-4 6.2-1 2.4-1.5 5-1.5 7.7 0 2.7 0.6 5.3 1.5 7.6 1 2.4 2.3 4.4 4 6.2 1.8 1.8 3.8 3.2 6.2 4.2 2.4 1 5 1.5 7.9 1.5 2.9 0 5.5-0.5 7.9-1.5 2.4-1 4.5-2.3 6.2-4.2 1.8-1.7 3.1-3.8 4-6.2 1-2.3 1.4-4.8 1.5-7.6z"/><path fill-rule="evenodd" class="a" d="m1395 38.3l6.3 9.2h-5.3l-5.7-8.6h-3.7v8.6h-4.4v-23.7h9.2c2.8 0 5.1 0.7 6.7 2 1.6 1.3 2.4 3.2 2.4 5.6 0 1.7-0.5 3.2-1.5 4.4-1 1.2-2.3 2-4 2.5zm-0.1-3.9c0.8-0.7 1.2-1.7 1.2-2.9 0-1.3-0.4-2.2-1.2-2.9-0.8-0.7-2-1.1-3.7-1.1h-4.4v7.8h4.4c1.7 0 2.9-0.3 3.7-0.9z"/><path fill-rule="evenodd" class="a" d="m145.8 64.6c0 9.8-1.9 19.7-5.7 28.8-4.1 9.9-10.4 18.9-18.9 26-11.5 9.6-27 15.6-46.7 15.6-2.2 0-4.4-0.1-6.6-0.3-14.8-1.1-28.5-6.3-37.1-14.3v84.4h-30.8v-201.2h30.8v26.6c0.1-0.2 0.1-0.3 0.1-0.5 1.6-12.9 10.8-21.6 23-26.1 6.5-2.4 14-3.6 21.4-3.6 40.9 0 70.4 31.7 70.5 64.6zm-33.8 25.5c-0.7-1.3-1.5-2.4-2.5-3.5-15.6-17.4-74.8-21.1-78.8-49.7v63.6h0.1c2.7 3.2 5.8 5.8 9.2 8.2 9.1 6.4 20.2 9.8 31.1 9.8 17.1 0 33.2-8.1 40.9-28.4zm5.3-28.6c0-35-33.2-49.4-54.1-49.4-14.4 0-25.3 6.4-27.8 17.6q-0.4 2-0.4 4.1c0 25.6 58.4 31.6 76.7 48.7q1.5 1.4 2.8 3c2.2-7.1 2.8-14.4 2.8-24z"/><path fill-rule="evenodd" class="a" d="m263 159.9h28.2c-3.9 13.9-11.3 25.1-22 33.4-12 9.5-26.8 14.2-44.4 14.2-67.6 0-71.7-64.8-71.7-77.9 0-14.8 9.2-76.2 69-76.2 40.9 0 65.2 25.6 65.2 54.7 0 11.8-6 43.7-59.2 43.7-14.5 0-34.7-4.4-45.8-10.8 0.8 6.9 5.6 44.4 42 44.4 27.8 0 36.2-18.3 38.7-25.5zm-81-24.3c11.4 6.4 32.2 10.5 46.5 10.5 52.5 0 40.8-71.3-3.3-71.3-48.4 0-43.3 59.6-43.2 60.8z"/></svg>